<?xml version="1.0" encoding="utf-8"?>
<!-- Generator: Adobe Illustrator 19.0.0, SVG Export Plug-In . SVG Version: 6.00 Build 0)  -->
<svg version="1.1" id="Слой_1" xmlns="http://www.w3.org/2000/svg" xmlns:xlink="http://www.w3.org/1999/xlink" x="0px" y="0px"
	 viewBox="0 0 32 32" style="enable-background:new 0 0 32 32;" xml:space="preserve">
<style type="text/css">
	.st0{fill:#FFFFFF;}
</style>
<path id="XMLID_2_" class="st0" d="M0,0.0000004v32h32v-32H0z M22.3622894,12.7383003
	c0.0067997,0.1406002,0.0098,0.2811995,0.0098,0.4237995c0,4.3379002-3.3017998,9.3397999-9.339901,9.3397999
	c-1.8544998,0-3.5790997-0.5429001-5.0321884-1.4745998C8.2577887,21.0585995,8.518589,21.0723,8.7831888,21.0723
	c1.5390997,0,2.9531002-0.5235004,4.0762005-1.4043007c-1.4356003-0.0254002-2.6485004-0.9745998-3.0653896-2.2792988
	C9.9940891,17.4277,10.1991892,17.4473,10.4110889,17.4473c0.2997999,0,0.5899115-0.0391045,0.8642998-0.1152992
	c-1.5-0.300806-2.6328001-1.6289005-2.6328001-3.2187004c0-0.0137005,0-0.0274,0-0.0410004
	c0.4433002,0.2461004,0.9492006,0.3944998,1.4872999,0.4101C9.2489996,13.8944998,8.6698895,12.8887005,8.6698895,11.75
	c0-0.6015997,0.1621103-1.1640997,0.4443998-1.6504002c1.6180992,1.9863005,4.0380993,3.2930002,6.7655993,3.4296999
	c-0.0556993-0.2402-0.085-0.4902-0.085-0.748105c0-1.8124943,1.4698-3.2811947,3.2832003-3.2811947
	c0.9433994,0,1.7969112,0.3984003,2.3955002,1.0351944c0.7470989-0.1464939,1.4501991-0.4200001,2.0849991-0.7950001
	c-0.2460995,0.7657061-0.7655888,1.4102058-1.4433994,1.8145056C22.7792892,11.4765997,23.4120884,11.3008003,24,11.0390997
	C23.5605888,11.6973,23.0038891,12.2754002,22.3622894,12.7383003z"/>
</svg>
