<?xml version="1.0" encoding="utf-8"?>
<!-- Generator: Adobe Illustrator 19.0.0, SVG Export Plug-In . SVG Version: 6.00 Build 0)  -->
<svg version="1.1" id="Слой_1" xmlns="http://www.w3.org/2000/svg" xmlns:xlink="http://www.w3.org/1999/xlink" x="0px" y="0px"
	 viewBox="0 0 32 32" style="enable-background:new 0 0 32 32;" xml:space="preserve">
<style type="text/css">
	.st0{fill:#FFFFFF;}
</style>
<g id="XMLID_2_">
	<polygon id="XMLID_17_" class="st0" points="10.3692932,17.4589996 11.3125925,17.4589996 11.3125925,22.1504002 
		12.2246923,22.1504002 12.2246923,17.4589996 13.1690931,17.4589996 13.1690931,16.6601944 10.3692932,16.6601944 	"/>
	<path id="XMLID_16_" class="st0" d="M15.9717932,13.5625c0.1239996,0,0.2216997-0.0332003,0.2938986-0.1015997
		c0.0733013-0.0683002,0.1104012-0.1640005,0.1104012-0.2832003v-2.4296999c0-0.0976-0.0370998-0.1757002-0.1112995-0.2363005
		c-0.0742016-0.0605049-0.1718998-0.0897999-0.2930002-0.0897999c-0.1103001,0-0.2012005,0.029295-0.2715006,0.0897999
		c-0.0683002,0.0606003-0.1034994,0.1387005-0.1034994,0.2363005V13.1777c0,0.1231003,0.0331993,0.2167997,0.0976992,0.2832003
		C15.758893,13.5311947,15.8516932,13.5625,15.9717932,13.5625z"/>
	<path id="XMLID_13_" class="st0" d="M17.9834919,18.0508003c-0.1259995,0-0.25,0.0312004-0.3739986,0.0956993
		c-0.1211014,0.0643997-0.2372818,0.1601009-0.3467007,0.2812004v-1.7675056h-0.8183002v5.4902058h0.8183002v-0.3106003
		c0.1054993,0.125,0.2227001,0.2148991,0.3467007,0.2735004c0.1229992,0.0604992,0.2637177,0.0878944,0.4228001,0.0878944
		c0.2392998,0,0.4239178-0.074295,0.5499172-0.2284946c0.127882-0.1543007,0.190382-0.3731003,0.190382-0.6583004v-2.2479992
		c0-0.3320007-0.0663815-0.5839996-0.2021999-0.7578011C18.4356918,18.1366997,18.2403927,18.0508003,17.9834919,18.0508003z
		 M17.9385929,21.2011948c0,0.130806-0.0233822,0.2226048-0.0692997,0.2793045
		c-0.0468998,0.0586014-0.1191998,0.0879002-0.2188015,0.0879002c-0.0682812,0-0.1327991-0.0156994-0.1952801-0.0450001
		c-0.0625191-0.0272999-0.1270008-0.0781002-0.1924191-0.1424999V18.857399c0.0557003-0.0565987,0.1104183-0.097599,0.1669998-0.125
		c0.0566998-0.0253983,0.1142998-0.0389996,0.1718998-0.0389996c0.1084003,0,0.1933002,0.0351009,0.2518997,0.1054001
		c0.0577011,0.0703011,0.085001,0.1739006,0.085001,0.3125V21.2011948z"/>
	<path id="XMLID_12_" class="st0" d="M15.0264931,21.1758003c-0.0762005,0.0879002-0.1592007,0.160099-0.2510004,0.2187004
		c-0.0908003,0.056694-0.1669998,0.0839996-0.2256002,0.0839996c-0.0752001,0-0.1307993-0.0195007-0.1659994-0.0643997
		c-0.0321999-0.0430012-0.0497999-0.1114006-0.0497999-0.2070999v-3.1074009h-0.8095999v3.3866997
		c0,0.2422009,0.0478992,0.4198952,0.1415997,0.5410004c0.0957003,0.1231003,0.2354002,0.1816998,0.4238997,0.1816998
		c0.1513004,0,0.3086004-0.0410004,0.4696999-0.1289005c0.1621008-0.0859985,0.3174-0.2109985,0.4668007-0.375v0.4453011h0.8095999
		v-4.0508003h-0.8095999V21.1758003z"/>
	<path id="XMLID_6_" class="st0" d="M0.1133931,0.0000004v32h31.9999981v-32H0.1133931z M18.0430927,9.7617006h0.9101181v3.419899
		c0,0.1055002,0.0214825,0.1817007,0.0585823,0.2285948c0.037199,0.0488052,0.1005993,0.0722055,0.1856003,0.0722055
		c0.0663986,0,0.1522999-0.0312052,0.2549-0.0936995c0.1014996-0.0645056,0.1952991-0.1426001,0.2801991-0.2403002V9.7617006
		h0.9122009v4.4609995h-0.9122009v-0.4941998c-0.1669006,0.181694-0.3418007,0.3223-0.5244007,0.4159994
		c-0.1815987,0.0938005-0.357399,0.1445999-0.5282993,0.1445999c-0.2119007,0-0.3691006-0.0683994-0.4765816-0.2031994
		c-0.1064186-0.1308002-0.1601181-0.3299999-0.1601181-0.595706V9.7617006z M14.6592932,10.7811947
		c0-0.3456945,0.1229992-0.6210003,0.3671999-0.8241949c0.2451-0.2051001,0.5761995-0.3065996,0.9902-0.3065996
		c0.3769989,0,0.6856003,0.1073999,0.9277992,0.3223c0.2392006,0.2147999,0.3593006,0.4960003,0.3593006,0.8339005v2.3046999
		c0,0.3827991-0.1172009,0.6796999-0.3525009,0.8984995c-0.237299,0.2167997-0.5625,0.3261003-0.9765997,0.3261003
		c-0.3983994,0-0.7177-0.1132002-0.9569998-0.3379002c-0.2382994-0.2245998-0.3583994-0.5253-0.3583994-0.9042997V10.7811947z
		 M12.1768932,8.1758003l0.6659994,2.4179001h0.0643997l0.6358004-2.4179001h1.0419998l-1.1943998,3.5389996v2.5079002h-1.0253
		v-2.3965054L11.143693,8.1758003H12.1768932z M24.1133919,20.9022999c0,1.6133003-1.3095989,2.9238949-2.9228001,2.9238949
		H11.0352926c-1.6142998,0-2.9218998-1.3105946-2.9218998-2.9238949V18.5527c0-1.6133003,1.3076-2.9238005,2.9218998-2.9238005
		h10.1552992c1.6132011,0,2.9228001,1.3105001,2.9228001,2.9238005V20.9022999z"/>
	<path id="XMLID_3_" class="st0" d="M20.4268932,18c-0.3623009,0-0.6563015,0.1093998-0.8858013,0.3300991
		c-0.2294998,0.2207012-0.3436985,0.5097008-0.3436985,0.8593006v1.8183994c0,0.3906002,0.1054993,0.6973,0.3125,0.9180012
		C19.7178917,22.1504002,20.0039921,22.2598,20.366293,22.2598c0.4034004,0,0.7070999-0.1036053,0.9081993-0.3125
		c0.205101-0.2110004,0.3057194-0.5235004,0.3057194-0.9395008v-0.2069988h-0.8330002v0.1835995
		c0,0.2383003-0.0283184,0.3924999-0.0801182,0.4629002C20.6133919,21.5175991,20.5196934,21.5527,20.3848934,21.5527
		c-0.1289005,0-0.2206821-0.0410004-0.2744007-0.1230011c-0.0527992-0.0839996-0.0790997-0.232399-0.0790997-0.4452991v-0.7616997
		h1.5488186v-1.0333004c0-0.3846989-0.0996189-0.6777-0.2988186-0.8827991C21.0830917,18.1016006,20.7979927,18,20.4268932,18z
		 M20.7472115,19.5918007h-0.7158184v-0.4082012c0-0.169899,0.0272999-0.2929993,0.0839996-0.3633003
		c0.0566006-0.0761986,0.1483994-0.1132984,0.2772999-0.1132984c0.1229992,0,0.2147999,0.0370998,0.2695179,0.1132984
		c0.0556812,0.0703011,0.085001,0.1934013,0.085001,0.3633003V19.5918007z"/>
</g>
</svg>
