<?xml version="1.0" encoding="utf-8"?>
<!-- Generator: Adobe Illustrator 19.0.0, SVG Export Plug-In . SVG Version: 6.00 Build 0)  -->
<svg version="1.1" id="Слой_1" xmlns="http://www.w3.org/2000/svg" xmlns:xlink="http://www.w3.org/1999/xlink" x="0px" y="0px"
	 viewBox="0 0 32 32" style="enable-background:new 0 0 32 32;" xml:space="preserve">
<style type="text/css">
	.st0{fill:#FFFFFF;}
</style>
<g id="XMLID_2_">
	<path id="XMLID_3_" class="st0" d="M-0.0000004,0.0000001v32h32v-32H-0.0000004z M22.2714844,17.1506958
		c0.1062012,0.1316528,0.3606567,0.3883057,0.7622681,0.7711182h0.0099487l0.0099487,0.0099487l0.0099487,0.0099487
		l0.0187988,0.0187988c0.8840332,0.8220825,1.4836426,1.5146484,1.7967529,2.0788574
		c0.0187988,0.0310059,0.0386963,0.0708008,0.0608521,0.1173096c0.0221558,0.0464478,0.0442505,0.1305542,0.0664063,0.2489014
		c0.0220947,0.1195068,0.0198975,0.225708-0.0044556,0.3197632c-0.0254517,0.0940552-0.1040039,0.1802979-0.2356567,0.2588501
		c-0.1327515,0.0785522-0.3175049,0.1173096-0.5565186,0.1173096l-2.4085083,0.0375977
		c-0.1504517,0.0310059-0.326355,0.0155029-0.5266113-0.0475464c-0.2002563-0.0631104-0.3640137-0.1316528-0.4890137-0.2069092
		l-0.1881104-0.112854c-0.1880493-0.1316528-0.4071045-0.3319092-0.6582642-0.6018677s-0.4657593-0.512207-0.6450195-0.7290649
		c-0.1791992-0.2168579-0.3695068-0.3983154-0.5742188-0.5454712c-0.2035522-0.1470947-0.3805542-0.1958008-0.5310059-0.1459961
		c-0.0188599,0.0065918-0.0443115,0.0177002-0.0752563,0.0332031c-0.0310059,0.0154419-0.0852051,0.060791-0.1604004,0.1360474
		c-0.0752563,0.0752563-0.1427612,0.1681519-0.201355,0.27771c-0.0586548,0.1094971-0.112854,0.2732544-0.1604614,0.4901123
		c-0.0475464,0.2157593-0.0675049,0.4591064-0.0608521,0.7290649c0,0.0940552-0.0110474,0.1803589-0.0332031,0.2589111
		c-0.0220947,0.0774536-0.0453491,0.1361084-0.0708008,0.1737061l-0.0375977,0.0464478
		c-0.112854,0.1195068-0.2788086,0.1881104-0.4989624,0.2069092h-1.0809326
		c-0.4458618,0.0254517-0.9038696-0.0265503-1.3740845-0.1549072s-0.8828735-0.2943115-1.2368774-0.4989624
		c-0.3540649-0.2035522-0.677124-0.4104614-0.9691772-0.6206665c-0.2921143-0.2102051-0.5122681-0.390564-0.6638184-0.5410156
		l-0.2345581-0.225708c-0.0630493-0.0630493-0.149353-0.1571045-0.2589111-0.2821045
		c-0.1094971-0.125-0.3341064-0.4104614-0.6726685-0.8563232c-0.338501-0.4447632-0.6715698-0.9182739-0.9979248-1.4205322
		c-0.326355-0.5023193-0.7102661-1.1639404-1.1517334-1.9848633c-0.4414067-0.8208618-0.8518682-1.6749878-1.2280278-2.55896
		c-0.0375977-0.100708-0.0564575-0.1859131-0.0564575-0.2544556c0-0.0686035,0.0100098-0.1195068,0.0288086-0.1505127
		l0.0375977-0.0563965c0.0940552-0.1195068,0.2721558-0.1792603,0.5354614-0.1792603l2.5778203-0.0187988
		c0.0752563,0.012207,0.1471558,0.0332031,0.2168579,0.0608521c0.0686035,0.0287476,0.1195068,0.0553589,0.1504517,0.0796509
		l0.0476074,0.0288086c0.100647,0.0685425,0.1759033,0.1692505,0.225647,0.3009033
		c0.125061,0.3131104,0.2699585,0.6383667,0.4326172,0.9735718c0.1626587,0.3352661,0.2920532,0.5908203,0.3861084,0.7667236
		l0.1504517,0.2732544c0.1814575,0.3761597,0.3573608,0.7025757,0.5266724,0.9780273
		c0.1692505,0.2755127,0.3218994,0.4912109,0.4558105,0.6450195c0.1349487,0.1538086,0.2655029,0.274353,0.3905029,0.362915
		c0.125061,0.0874023,0.2323608,0.1316528,0.3197632,0.1316528s0.1726074-0.0155029,0.2544556-0.0476074
		c0.012207-0.0054932,0.0276489-0.0220947,0.0464478-0.0464478c0.0188599-0.0254517,0.0564575-0.0940552,0.112854-0.2069092
		c0.0564575-0.112854,0.0985107-0.2600098,0.1272583-0.4425049c0.0287476-0.1814575,0.0575562-0.4359131,0.0895996-0.7623291
		c0.0310059-0.326355,0.0310059-0.7180176,0-1.1760254c-0.012146-0.2511597-0.0408936-0.4801636-0.0852051-0.6870728
		c-0.0442505-0.2068481-0.0874023-0.350708-0.1316528-0.4325562l-0.0563965-0.112854
		c-0.1560059-0.213562-0.4226074-0.3474121-0.7999268-0.4038086c-0.0807495-0.0133057-0.0652466-0.088562,0.0476074-0.2268066
		c0.1062012-0.1195068,0.225708-0.213562,0.3573608-0.2821655c0.3319092-0.1625977,1.0820313-0.237854,2.2481079-0.225647
		c0.5144653,0.0065918,0.9381714,0.0475464,1.2700806,0.1228027c0.1261597,0.0309448,0.2312622,0.072998,0.3153076,0.1271973
		c0.0841064,0.0541992,0.149353,0.1283569,0.1925049,0.225708s0.076355,0.1980591,0.0985107,0.3009033
		c0.0220947,0.1040039,0.0331421,0.2467651,0.0331421,0.4281616c0,0.1814575-0.0021973,0.3540649-0.0088501,0.5167236
		c-0.0065918,0.1625977-0.0143433,0.3838501-0.0231934,0.6637573c-0.0099487,0.2788086-0.0144043,0.5377197-0.0144043,0.7755737
		c0,0.0686035-0.0032959,0.2002563-0.0099487,0.3949585c-0.0055542,0.1947632-0.0066528,0.3452148-0.0044556,0.4525146
		c0.0022583,0.1072998,0.0144043,0.2334595,0.0332031,0.3806152s0.0553589,0.2699585,0.1084595,0.3673096
		s0.1239014,0.1737061,0.2113037,0.2301025c0.0509033,0.0133057,0.1040039,0.0254517,0.1604004,0.0375977
		c0.0564575,0.012207,0.1383057-0.0220947,0.2445068-0.1040039c0.1062012-0.0818481,0.225708-0.1891479,0.3573608-0.3241577
		c0.1316528-0.1349487,0.2943115-0.3451538,0.4890137-0.6306152c0.1947021-0.2854004,0.4071655-0.6228638,0.6394653-1.0111694
		c0.3761597-0.652771,0.7114258-1.3575439,1.0067749-2.1165161c0.0254517-0.0630493,0.0564575-0.1172485,0.0940552-0.1647949
		c0.0375977-0.0476074,0.0718994-0.0797119,0.1040039-0.0985107l0.0375977-0.0287476l0.0476074-0.0232544
		c0,0,0.0408936-0.0099487,0.1228027-0.0287476c0.0818481-0.0187988,0.1437988-0.0198975,0.1880493-0.0043945l2.7094727-0.0188599
		c0.2445068-0.0309448,0.4458618-0.0231934,0.6018677,0.0232544c0.1571045,0.0475464,0.2544556,0.0984497,0.2921143,0.1549072
		l0.0552979,0.0951538c0.1437988,0.4016113-0.326355,1.3231812-1.4117432,2.7658691
		c-0.1504517,0.2002563-0.3540039,0.4668579-0.6118164,0.7999268c-0.4890137,0.6272583-0.7711182,1.0377197-0.8463135,1.2324829
		C22.0335693,16.6450806,22.0767212,16.8995361,22.2714844,17.1506958z"/>
</g>
</svg>
