<?xml version="1.0" encoding="utf-8"?>
<!-- Generator: Adobe Illustrator 17.0.0, SVG Export Plug-In . SVG Version: 6.00 Build 0)  -->
<!DOCTYPE svg PUBLIC "-//W3C//DTD SVG 1.1//EN" "http://www.w3.org/Graphics/SVG/1.1/DTD/svg11.dtd">
<svg version="1.1" xmlns="http://www.w3.org/2000/svg" xmlns:xlink="http://www.w3.org/1999/xlink" x="0px" y="0px"
	 width="13.292px" height="10.799px" viewBox="0 0 13.292 10.799" enable-background="new 0 0 13.292 10.799" xml:space="preserve">
<g id="From_Your_Friends_at_User10.com">
</g>
<g id="RAW_ICONS_-_SQUARE__x2F__ROUNDED__x2F__CIRCLE">
	<g>
		<g id="XMLID_1_">
			<g>
				<path d="M13.292,1.279c-0.357,0.548-0.822,1.03-1.354,1.412c0,0.116,0.008,0.233,0.008,0.349c0,3.605-2.75,7.759-7.759,7.759
					c-1.545,0-2.974-0.449-4.187-1.221c0.216,0.025,0.432,0.033,0.656,0.033c1.279,0,2.451-0.432,3.381-1.163
					C2.849,8.424,1.844,7.634,1.495,6.554c0.166,0.033,0.332,0.05,0.515,0.05c0.249,0,0.49-0.033,0.714-0.1
					C1.479,6.255,0.54,5.151,0.54,3.83c0-0.008,0-0.017,0-0.033c0.366,0.208,0.789,0.332,1.229,0.341
					C1.038,3.655,0.557,2.816,0.557,1.869c0-0.498,0.141-0.964,0.374-1.371c1.346,1.653,3.356,2.733,5.616,2.849
					C6.505,3.148,6.48,2.941,6.48,2.725C6.48,1.221,7.701,0,9.204,0c0.789,0,1.495,0.332,1.994,0.864
					c0.623-0.125,1.205-0.349,1.728-0.665c-0.199,0.64-0.631,1.171-1.196,1.512C12.278,1.645,12.81,1.495,13.292,1.279z"/>
			</g>
		</g>
	</g>
</g>
</svg>
