<?xml version="1.0" encoding="utf-8"?>
<!-- Generator: Adobe Illustrator 17.0.0, SVG Export Plug-In . SVG Version: 6.00 Build 0)  -->
<!DOCTYPE svg PUBLIC "-//W3C//DTD SVG 1.1//EN" "http://www.w3.org/Graphics/SVG/1.1/DTD/svg11.dtd">
<svg version="1.1" xmlns="http://www.w3.org/2000/svg" xmlns:xlink="http://www.w3.org/1999/xlink" x="0px" y="0px"
	 width="12.135px" height="12.165px" viewBox="0 0 12.135 12.165" enable-background="new 0 0 12.135 12.165" xml:space="preserve">
<g id="From_Your_Friends_at_User10.com">
</g>
<g id="RAW_ICONS_-_SQUARE__x2F__ROUNDED__x2F__CIRCLE">
	<g>
		<path d="M7.891,6.163c0-1.02-0.828-1.849-1.839-1.849c-1.02,0-1.839,0.829-1.839,1.849c0,1.02,0.818,1.849,1.839,1.849
			C7.063,8.012,7.891,7.184,7.891,6.163z"/>
		<path d="M9.629,6.163c0,1.98-1.607,3.597-3.577,3.597c-1.98,0-3.587-1.617-3.587-3.597c0-0.081,0.01-0.162,0.01-0.243H0v5.032
			c0,0.667,0.546,1.212,1.212,1.212h9.7c0.677,0,1.223-0.546,1.223-1.212V5.921H9.619C9.629,6.002,9.629,6.083,9.629,6.163z"/>
		<path d="M10.912,0H4.274v1.768c0,0.232-0.182,0.414-0.414,0.414c-0.232,0-0.414-0.182-0.414-0.414V0H3.142v1.768
			c0,0.232-0.192,0.414-0.424,0.414c-0.222,0-0.414-0.182-0.414-0.414V0H1.95v1.768c0,0.232-0.192,0.414-0.424,0.414
			c-0.232,0-0.414-0.182-0.414-0.414V0C0.485,0.051,0,0.576,0,1.212v3.445h2.799c0.566-1.233,1.809-2.091,3.253-2.091
			c1.435,0,2.677,0.859,3.253,2.091h2.829V1.212C12.135,0.546,11.589,0,10.912,0z M10.953,2.768c0,0.283-0.232,0.515-0.515,0.515
			H9.346c-0.283,0-0.515-0.232-0.515-0.515V1.677c0-0.293,0.232-0.525,0.515-0.525h1.091c0.283,0,0.515,0.232,0.515,0.525V2.768z"/>
	</g>
</g>
</svg>
