<?xml version="1.0" encoding="utf-8"?>
<!-- Generator: Adobe Illustrator 17.0.0, SVG Export Plug-In . SVG Version: 6.00 Build 0)  -->
<!DOCTYPE svg PUBLIC "-//W3C//DTD SVG 1.1//EN" "http://www.w3.org/Graphics/SVG/1.1/DTD/svg11.dtd">
<svg version="1.1" xmlns="http://www.w3.org/2000/svg" xmlns:xlink="http://www.w3.org/1999/xlink" x="0px" y="0px"
	 width="16.333px" height="9.319px" viewBox="0 0 16.333 9.319" enable-background="new 0 0 16.333 9.319" xml:space="preserve">
<g id="From_Your_Friends_at_User10.com">
</g>
<g id="RAW_ICONS_-_SQUARE__x2F__ROUNDED__x2F__CIRCLE">
	<g>
		<path d="M16.31,0.673c0.13,0.363-0.295,1.196-1.276,2.5c-0.136,0.181-0.32,0.422-0.553,0.723
			c-0.442,0.567-0.697,0.938-0.765,1.114c-0.096,0.232-0.057,0.462,0.119,0.689c0.096,0.119,0.326,0.351,0.689,0.697h0.009
			l0.009,0.009l0.009,0.009l0.017,0.017c0.799,0.743,1.341,1.369,1.624,1.879c0.017,0.028,0.035,0.064,0.055,0.106
			s0.04,0.118,0.06,0.225c0.02,0.108,0.018,0.204-0.004,0.289c-0.023,0.085-0.094,0.163-0.213,0.234
			C15.97,9.235,15.803,9.27,15.587,9.27L13.41,9.304c-0.136,0.028-0.295,0.014-0.476-0.043c-0.181-0.057-0.329-0.119-0.442-0.187
			l-0.17-0.102c-0.17-0.119-0.368-0.3-0.595-0.544s-0.421-0.463-0.583-0.659c-0.162-0.196-0.334-0.36-0.519-0.493
			c-0.184-0.133-0.344-0.177-0.48-0.132c-0.017,0.006-0.04,0.016-0.068,0.03C10.049,7.188,10,7.229,9.932,7.297
			C9.864,7.365,9.803,7.449,9.75,7.548S9.648,7.795,9.605,7.991C9.562,8.186,9.544,8.406,9.55,8.65c0,0.085-0.01,0.163-0.03,0.234
			C9.5,8.954,9.479,9.007,9.456,9.041L9.422,9.083C9.32,9.191,9.17,9.253,8.971,9.27H7.994C7.591,9.293,7.177,9.246,6.752,9.13
			C6.327,9.014,5.954,8.864,5.634,8.679c-0.32-0.184-0.612-0.371-0.876-0.561c-0.264-0.19-0.463-0.353-0.6-0.489L3.946,7.425
			C3.889,7.368,3.811,7.283,3.712,7.17C3.613,7.057,3.41,6.799,3.104,6.396C2.798,5.994,2.497,5.566,2.202,5.112
			S1.56,4.06,1.161,3.318s-0.77-1.514-1.11-2.313C0.017,0.914,0,0.837,0,0.775s0.009-0.108,0.026-0.136L0.06,0.588
			C0.145,0.48,0.306,0.426,0.544,0.426l2.33-0.017c0.068,0.011,0.133,0.03,0.196,0.055c0.062,0.026,0.108,0.05,0.136,0.072
			l0.043,0.026c0.091,0.062,0.159,0.153,0.204,0.272c0.113,0.283,0.244,0.577,0.391,0.88c0.147,0.303,0.264,0.534,0.349,0.693
			l0.136,0.247c0.164,0.34,0.323,0.635,0.476,0.884s0.291,0.444,0.412,0.583C5.339,4.26,5.457,4.369,5.57,4.449
			c0.113,0.079,0.21,0.119,0.289,0.119c0.079,0,0.156-0.014,0.23-0.043C6.1,4.52,6.114,4.505,6.131,4.483
			C6.148,4.46,6.182,4.398,6.233,4.296c0.051-0.102,0.089-0.235,0.115-0.4c0.026-0.164,0.052-0.394,0.081-0.689
			c0.028-0.295,0.028-0.649,0-1.063C6.418,1.917,6.392,1.71,6.352,1.523c-0.04-0.187-0.079-0.317-0.119-0.391L6.182,1.03
			C6.041,0.837,5.8,0.716,5.459,0.665C5.386,0.653,5.4,0.585,5.502,0.46c0.096-0.108,0.204-0.193,0.323-0.255
			c0.3-0.147,0.978-0.215,2.032-0.204c0.465,0.006,0.848,0.043,1.148,0.111C9.119,0.14,9.214,0.178,9.29,0.227
			s0.135,0.116,0.174,0.204s0.069,0.179,0.089,0.272c0.02,0.094,0.03,0.223,0.03,0.387S9.581,1.41,9.575,1.557
			s-0.013,0.347-0.021,0.6C9.545,2.409,9.541,2.643,9.541,2.858c0,0.062-0.003,0.181-0.009,0.357
			C9.527,3.391,9.526,3.527,9.528,3.624s0.013,0.211,0.03,0.344C9.575,4.101,9.608,4.212,9.656,4.3
			c0.048,0.088,0.112,0.157,0.191,0.208C9.893,4.52,9.941,4.531,9.992,4.542c0.051,0.011,0.125-0.02,0.221-0.094
			c0.096-0.074,0.204-0.171,0.323-0.293c0.119-0.122,0.266-0.312,0.442-0.57c0.176-0.258,0.368-0.563,0.578-0.914
			c0.34-0.59,0.643-1.227,0.91-1.913c0.023-0.057,0.051-0.106,0.085-0.149c0.034-0.043,0.065-0.072,0.094-0.089l0.034-0.026
			l0.043-0.021c0,0,0.037-0.009,0.111-0.026c0.074-0.017,0.13-0.018,0.17-0.004l2.449-0.017c0.221-0.028,0.403-0.021,0.544,0.021
			c0.142,0.043,0.23,0.089,0.264,0.14L16.31,0.673z"/>
	</g>
</g>
</svg>
